<?xml version="1.0" encoding="UTF-8"?>
<svg id="Layer_1" data-name="Layer 1" xmlns="http://www.w3.org/2000/svg" version="1.1" viewBox="0 0 297.64 198.43">
  <defs>
    <style>
      .cls-1 {
        fill: #f9d521;
      }

      .cls-1, .cls-2, .cls-3, .cls-4 {
        stroke-width: 0px;
      }

      .cls-2 {
        fill: #231f20;
      }

      .cls-3 {
        fill: #fff;
      }

      .cls-4 {
        fill: #727373;
      }
    </style>
  </defs>
  <g>
    <path class="cls-4" d="M27.51,54.01v84.17c0,7.56,1.77,14.71,4.92,21.04,7.75,15.59,23.83,26.3,42.42,26.3h215.69s0-84.17,0-84.17c0-26.15-21.2-47.35-47.35-47.35H27.51Z"/>
    <path class="cls-2" d="M243.2,56.64c6.04,0,11.89,1.18,17.41,3.51,5.32,2.25,10.11,5.48,14.21,9.58,4.11,4.11,7.33,8.89,9.58,14.21,2.33,5.51,3.51,11.37,3.51,17.41v81.54H74.86c-8.48,0-16.74-2.39-23.87-6.9-6.95-4.39-12.55-10.6-16.2-17.95-3.08-6.2-4.65-12.89-4.65-19.87V56.64h213.06M243.2,54.01H27.51v84.17c0,7.56,1.77,14.71,4.92,21.04,7.75,15.59,23.83,26.3,42.42,26.3h215.69v-84.17c0-26.15-21.2-47.35-47.35-47.35h0Z"/>
  </g>
  <g>
    <rect class="cls-1" x="15.95" y="21.77" width="78.91" height="78.91" transform="translate(-13.96 16.43) rotate(-15)"/>
    <polygon class="cls-2" points="79.89 67.9 83.22 80.35 43.04 91.12 29.08 39.01 41.78 35.6 52.41 75.26 79.89 67.9"/>
  </g>
  <g>
    <path class="cls-3" d="M173.45,97.49h5.18v7.58l6.44-7.58h6.14l-7.08,8.04,7.32,10.66h-6.22l-4.7-6.94-1.9,2.11v4.83h-5.18v-18.69Z"/>
    <path class="cls-3" d="M199.99,97.36h4.99l7.96,18.83h-5.55l-1.36-3.34h-7.21l-1.34,3.34h-5.45l7.96-18.83ZM204.53,108.81l-2.08-5.31-2.11,5.31h4.19Z"/>
    <path class="cls-3" d="M214.2,97.49h8.84c2.86,0,4.83.75,6.09,2.03,1.09,1.07,1.66,2.51,1.66,4.35v.05c0,2.86-1.52,4.75-3.85,5.74l4.46,6.52h-5.98l-3.77-5.66h-2.27v5.66h-5.18v-18.69ZM222.8,106.46c1.76,0,2.78-.85,2.78-2.22v-.05c0-1.47-1.07-2.22-2.8-2.22h-3.39v4.49h3.42Z"/>
    <path class="cls-3" d="M232.2,106.89v-.05c0-5.37,4.33-9.72,10.09-9.72s10.04,4.3,10.04,9.67v.05c0,5.37-4.33,9.72-10.09,9.72s-10.04-4.3-10.04-9.67ZM247.05,106.89v-.05c0-2.7-1.95-5.05-4.81-5.05s-4.73,2.3-4.73,4.99v.05c0,2.7,1.95,5.05,4.78,5.05s4.75-2.3,4.75-4.99Z"/>
    <path class="cls-3" d="M255.04,97.49h8.84c2.86,0,4.83.75,6.09,2.03,1.09,1.07,1.66,2.51,1.66,4.35v.05c0,2.86-1.52,4.75-3.85,5.74l4.46,6.52h-5.98l-3.77-5.66h-2.27v5.66h-5.18v-18.69ZM263.63,106.46c1.76,0,2.78-.85,2.78-2.22v-.05c0-1.47-1.07-2.22-2.8-2.22h-3.39v4.49h3.42Z"/>
    <path class="cls-3" d="M274.34,97.49h5.21v18.69h-5.21v-18.69Z"/>
  </g>
  <g>
    <path class="cls-3" d="M57.85,129.54h8.84c2.86,0,4.83.75,6.09,2.03,1.09,1.07,1.66,2.51,1.66,4.35v.05c0,2.86-1.52,4.75-3.85,5.74l4.46,6.52h-5.98l-3.77-5.66h-2.27v5.66h-5.18v-18.69ZM66.44,138.51c1.76,0,2.78-.85,2.78-2.22v-.05c0-1.47-1.07-2.22-2.8-2.22h-3.39v4.49h3.42Z"/>
    <g>
      <path class="cls-3" d="M37.42,129.54h7.21c6.68,0,10.55,3.85,10.55,9.24v.05c0,5.39-3.93,9.4-10.66,9.4h-7.1v-18.69ZM44.71,143.64c3.1,0,5.15-1.71,5.15-4.73v-.05c0-2.99-2.06-4.73-5.15-4.73h-2.11v9.51s2.11,0,2.11,0Z"/>
      <path class="cls-3" d="M77.15,129.54h5.21v18.69h-5.21v-18.69Z"/>
      <path class="cls-3" d="M84.28,129.54h5.79l4.25,11.83,4.25-11.83h5.69l-7.58,18.83h-4.81l-7.58-18.83Z"/>
      <path class="cls-3" d="M106.18,129.54h5.21v18.69h-5.21v-18.69Z"/>
      <path class="cls-3" d="M114.81,129.54h4.83l7.69,9.88v-9.88h5.13v18.69h-4.54l-7.98-10.25v10.25s-5.13,0-5.13,0v-18.69Z"/>
      <path class="cls-3" d="M135.13,138.94v-.05c0-5.45,4.27-9.72,10.07-9.72,3.28,0,5.61,1.01,7.58,2.72l-3.04,3.66c-1.34-1.12-2.67-1.76-4.51-1.76-2.7,0-4.78,2.27-4.78,5.13v.05c0,3.02,2.11,5.18,5.07,5.18,1.26,0,2.22-.27,2.99-.77v-2.27h-3.69v-3.79h8.6v8.41c-1.98,1.63-4.73,2.88-8.12,2.88-5.82,0-10.17-4.01-10.17-9.67Z"/>
      <path class="cls-3" d="M162.29,145.45l2.88-3.44c1.84,1.47,3.9,2.24,6.06,2.24,1.39,0,2.14-.48,2.14-1.28v-.05c0-.77-.61-1.2-3.15-1.79-3.98-.91-7.05-2.03-7.05-5.88v-.05c0-3.47,2.75-5.98,7.24-5.98,3.18,0,5.66.85,7.69,2.48l-2.59,3.66c-1.71-1.2-3.58-1.84-5.23-1.84-1.26,0-1.87.53-1.87,1.2v.05c0,.85.64,1.23,3.23,1.82,4.3.93,6.97,2.32,6.97,5.82v.05c0,3.82-3.02,6.09-7.56,6.09-3.31,0-6.46-1.04-8.76-3.1Z"/>
      <path class="cls-3" d="M180.48,138.94v-.05c0-5.45,4.19-9.72,9.85-9.72,3.82,0,6.28,1.6,7.93,3.9l-3.9,3.02c-1.07-1.34-2.3-2.19-4.09-2.19-2.62,0-4.46,2.22-4.46,4.94v.05c0,2.8,1.84,4.99,4.46,4.99,1.95,0,3.1-.91,4.22-2.27l3.9,2.78c-1.76,2.43-4.14,4.22-8.28,4.22-5.34,0-9.64-4.09-9.64-9.67Z"/>
      <path class="cls-3" d="M200.61,129.54h5.18v7h6.65v-7s5.18,0,5.18,0v18.69h-5.18v-7.1s-6.65,0-6.65,0v7.1h-5.18v-18.69Z"/>
      <path class="cls-3" d="M220.29,138.94v-.05c0-5.37,4.33-9.72,10.09-9.72s10.04,4.3,10.04,9.67v.05c0,5.37-4.33,9.72-10.09,9.72s-10.04-4.3-10.04-9.67ZM235.14,138.94v-.05c0-2.7-1.95-5.05-4.81-5.05s-4.73,2.3-4.73,4.99v.05c0,2.7,1.95,5.05,4.78,5.05s4.75-2.3,4.75-4.99Z"/>
      <path class="cls-3" d="M242.48,138.94v-.05c0-5.37,4.33-9.72,10.09-9.72s10.04,4.3,10.04,9.67v.05c0,5.37-4.33,9.72-10.09,9.72s-10.04-4.3-10.04-9.67ZM257.33,138.94v-.05c0-2.7-1.95-5.05-4.81-5.05s-4.73,2.3-4.73,4.99v.05c0,2.7,1.95,5.05,4.78,5.05s4.75-2.3,4.75-4.99Z"/>
      <path class="cls-3" d="M265.32,129.54h5.18v14.15h9.05v4.54h-14.23v-18.69Z"/>
    </g>
  </g>
  <path class="cls-1" d="M103.73,97.31h64.51c0,1.16-.94,2.1-2.1,2.1h-62.41v-2.1h0Z" transform="translate(271.98 196.72) rotate(-180)"/>
  <path class="cls-1" d="M89.42,101.51h78.83c0,1.16-.94,2.1-2.1,2.1h-76.72v-2.1h0Z" transform="translate(257.66 205.13) rotate(-180)"/>
  <path class="cls-1" d="M75.1,105.72h93.14c0,1.16-.94,2.1-2.1,2.1h-91.04v-2.1h0Z" transform="translate(243.35 213.55) rotate(-180)"/>
  <path class="cls-1" d="M60.79,109.93h107.46c0,1.16-.94,2.1-2.1,2.1H60.79v-2.1h0Z" transform="translate(229.03 221.97) rotate(-180)"/>
  <path class="cls-1" d="M46.47,114.14h121.77c0,1.16-.94,2.1-2.1,2.1H46.47v-2.1h0Z" transform="translate(214.71 230.38) rotate(-180)"/>
  <g>
    <path class="cls-2" d="M139.86,113.11c.08.12.17.2.24.29.13.17.29.21.5.18.23-.03.46-.03.68-.06.99-.11,1.97-.14,2.96.07.26.06.52.1.79.15-.3,0-.6-.02-.89-.06-.16-.02-.26.05-.31.19-.02.06,0,.13,0,.22.02,0,.06.03.1.04.49.13.97.27,1.47.39.1.02.23-.04.33-.09.11-.06.19-.11.31-.03.53.35,1.13.55,1.75.66.51.1,1.02.22,1.53.23.72.02,1.4-.26,2.08-.47.57-.18,1.13-.4,1.73-.46.68-.07,1.35-.17,2.02-.26.23-.03.47-.06.7-.05.17,0,.34.06.51-.06.03-.02.09-.01.13,0,.2.11.39.07.55-.05.2-.15.41-.13.61-.06.07.02.16.13.15.19-.03.24-.08.48-.13.73-.01.05-.04.1-.05.15.02.02.04.03.07.05.11-.11.23-.21.32-.33.17-.22.21-.49.25-.76.05-.32.04-.61-.27-.8-.11-.07-.1-.14-.02-.25.06-.08.1-.21.09-.3-.1-.55-.5-.86-.97-1.05-.41-.16-.86-.22-1.3-.29-.49-.08-.99-.13-1.48-.19-.16-.02-.26-.09-.24-.26.03-.37.01-.76.12-1.1.35-1.08.74-2.14,1.12-3.2.17-.47.38-.92.52-1.4.16-.54.29-1.08.36-1.63.1-.77.14-1.56.19-2.34.03-.48.05-.95.07-1.43,0-.05-.06-.14-.1-.14-.28-.02-.54.18-.58.46-.11.7-.21,1.4-.31,2.1-.04.27-.07.55-.11.82h-.06c-.02-.09-.05-.18-.05-.27,0-.46,0-.92,0-1.38,0-.56,0-1.12,0-1.68,0-.06-.03-.15-.07-.16-.21-.08-.53.15-.55.37-.04.38-.06.75-.09,1.13-.05.7-.1,1.39-.15,2.1-.22-1.19-.44-2.38-.67-3.6-.18.07-.32.12-.46.18-.14.06-.18.16-.16.31.05.39.1.79.14,1.18.07.55.13,1.1.2,1.69-.04-.09-.07-.16-.1-.22-.29-.72-.59-1.45-.88-2.17-.03-.08-.05-.19-.19-.15-.35.08-.5.27-.47.64.01.13.03.25.07.37.1.35.21.7.32,1.04.07.23.14.46.22.74-.65-.61-.95-1.39-1.46-2.07-.16.17-.31.32-.43.48-.05.06-.07.18-.04.24.09.22.17.46.32.64.32.4.67.77,1.01,1.16.19.21.37.42.56.64-.69-.51-1.34-1.06-2-1.61-.06-.05-.14-.12-.2-.1-.16.03-.42.51-.36.65.1.23.22.46.35.68.04.08.11.14.16.21-.3-.06-.56-.15-.83-.24-.2-.07-.41-.23-.61.12-.28-.59-.6-1.1-.78-1.66-.33-.97-.46-2-.57-3.01-.03-.26-.06-.52-.09-.77-.33,0-.5.12-.56.41-.03.14-.05.29-.04.44,0,.38.02.77.04,1.15,0,.18.02.37.03.55-.12-.19-.2-.39-.27-.59-.24-.68-.48-1.36-.73-2.04-.02-.06-.11-.15-.16-.15-.22.01-.44.22-.44.43,0,.29.02.59.1.87.1.39.26.76.4,1.14-.01,0-.03.01-.04.02-.17-.29-.34-.59-.5-.88-.37-.66-.74-1.32-1.11-1.98-.05-.08-.09-.18-.22-.11-.33.17-.66.54-.57.97.08.38.26.72.49,1.03.31.41.65.8.93,1.22.13.19.17.43.25.65-.02,0-.04.01-.06.02-.02-.02-.04-.04-.06-.06-.86-1-1.72-2.01-2.58-3.01-.21-.24-.31-.24-.45.06-.04.09-.06.21-.06.31,0,.25.14.44.3.62.66.74,1.32,1.48,1.97,2.23.1.12.16.27.24.41-.02.01-.04.03-.06.04-.28-.25-.56-.5-.84-.75-.44-.39-.87-.79-1.31-1.17-.07-.06-.24-.09-.33-.05-.13.06-.13.21-.08.34.16.38.36.74.68,1.02.42.37.84.74,1.26,1.11.1.09.17.22.25.33-.02.02-.03.03-.05.05-.17-.1-.33-.21-.5-.3-.31-.16-.62-.32-.94-.44-.11-.04-.26.05-.39.08.06.12.09.26.17.36.26.33.65.47,1.01.65.2.1.41.2.62.29-.33-.05-.64-.13-.96-.2-.12-.03-.24-.04-.36-.03-.09.01-.2.07-.24.14-.02.04.05.17.12.22.15.12.32.23.5.35-.07.02-.12.04-.17.05-.06.02-.12.03-.17.05-.16.07-.19.16-.06.27.13.11.28.21.42.31.14.09.29.18.48.29-.14,0-.22,0-.3,0-.21.03-.32.14-.33.32,0,.2.1.34.31.38.12.02.25.04.4.07-.23.09-.48.11-.52.39-.04.24.13.35.3.45-.01.03-.02.05-.03.06-.27.31-.27.46.02.74.09.09.12.17.08.28-.03.07-.04.14-.05.22-.07.32-.01.46.28.61.11.05.1.12.07.21-.12.4-.07.54.31.73.14.07.17.14.12.28-.1.36.04.58.39.69.09.03.18.06.28.1-.04.1-.06.18-.09.26-.08.25-.03.32.22.35.11.01.22.02.37.03-.27.37-.02.57.23.79-.87.52-1.82.59-2.75.75-.93.16-1.86.37-2.82.29Z"/>
    <path class="cls-2" d="M120.63,111.21c.06.08.12.14.17.21.09.12.21.15.36.13.16-.02.33-.02.49-.04.71-.08,1.41-.1,2.11.05.19.04.37.07.56.11-.22,0-.43-.02-.63-.04-.11-.02-.19.03-.22.13-.02.04,0,.1,0,.16.02,0,.04.02.07.03.35.09.7.19,1.05.28.07.02.16-.03.23-.06.08-.04.14-.08.22-.02.38.25.81.39,1.25.47.36.07.73.16,1.1.17.52.01,1-.18,1.49-.34.41-.13.81-.28,1.24-.33.48-.05.96-.12,1.45-.18.17-.02.34-.04.5-.04.12,0,.25.04.36-.04.02-.01.07,0,.09,0,.14.08.28.05.4-.03.14-.11.29-.09.44-.04.05.02.11.09.11.14-.02.17-.06.35-.09.52,0,.04-.03.07-.04.11.02.01.03.02.05.04.08-.08.16-.15.23-.24.12-.16.15-.35.18-.54.03-.23.03-.43-.19-.57-.08-.05-.07-.1-.02-.18.04-.06.07-.15.06-.22-.07-.39-.36-.62-.69-.75-.29-.12-.61-.16-.93-.21-.35-.06-.71-.09-1.06-.14-.11-.01-.18-.07-.17-.19.02-.26,0-.54.09-.79.25-.77.53-1.53.8-2.29.12-.34.27-.66.37-1,.11-.38.21-.77.26-1.17.07-.55.1-1.11.14-1.67.02-.34.04-.68.05-1.02,0-.03-.04-.1-.07-.1-.2-.01-.39.13-.42.33-.08.5-.15,1-.22,1.5-.03.2-.05.39-.08.59h-.04c-.01-.06-.03-.13-.03-.19,0-.33,0-.65,0-.98,0-.4,0-.8,0-1.2,0-.04-.02-.11-.05-.12-.15-.05-.38.11-.4.27-.03.27-.04.54-.06.81-.04.5-.07.99-.11,1.5-.16-.85-.31-1.7-.48-2.57-.13.05-.23.09-.33.13-.1.04-.13.12-.12.22.04.28.07.56.1.85.05.39.09.79.14,1.21-.03-.07-.05-.11-.07-.16-.21-.52-.42-1.04-.63-1.55-.02-.06-.04-.13-.14-.11-.25.06-.36.19-.34.45,0,.09.02.18.05.27.07.25.15.5.23.75.05.16.1.33.16.53-.46-.44-.68-.99-1.04-1.48-.11.12-.22.23-.31.35-.03.04-.05.13-.03.17.06.16.12.33.23.46.23.29.48.55.72.83.13.15.27.3.4.45-.49-.37-.96-.76-1.43-1.15-.04-.03-.1-.08-.14-.07-.11.02-.3.36-.26.46.07.17.16.33.25.49.03.05.08.1.12.15-.21-.04-.4-.11-.59-.17-.15-.05-.3-.16-.43.08-.2-.42-.43-.79-.56-1.19-.23-.7-.33-1.43-.41-2.15-.02-.18-.04-.37-.06-.55-.24,0-.36.09-.4.29-.02.1-.03.21-.03.32,0,.27.02.55.03.82,0,.13.02.26.02.39-.09-.14-.14-.28-.19-.42-.17-.48-.35-.97-.52-1.45-.02-.05-.08-.11-.12-.11-.16,0-.31.15-.31.31,0,.21.02.42.07.62.07.28.19.54.29.81,0,0-.02,0-.03.01-.12-.21-.24-.42-.36-.63-.26-.47-.53-.94-.79-1.41-.03-.06-.07-.13-.15-.08-.24.12-.47.38-.41.69.06.27.19.52.35.74.22.29.46.57.67.87.09.13.12.31.18.46-.01,0-.03.01-.04.02-.01-.01-.03-.03-.04-.04-.61-.72-1.23-1.43-1.84-2.15-.15-.17-.22-.17-.32.04-.03.07-.04.15-.04.22,0,.18.1.32.21.45.47.53.94,1.06,1.41,1.59.07.08.11.2.17.29-.02,0-.03.02-.04.03-.2-.18-.4-.36-.6-.54-.31-.28-.62-.56-.94-.83-.05-.05-.17-.07-.23-.04-.09.04-.09.15-.05.24.11.27.26.53.48.73.3.26.6.53.9.79.07.07.12.16.18.23-.01.01-.02.02-.04.03-.12-.07-.23-.15-.36-.21-.22-.11-.44-.23-.67-.31-.08-.03-.19.03-.28.06.04.09.06.19.12.26.19.23.46.34.72.46.15.07.29.14.44.21-.23-.03-.46-.09-.68-.14-.08-.02-.17-.03-.26-.02-.06,0-.14.05-.17.1-.02.03.04.12.08.16.11.09.23.16.36.25-.05.02-.09.03-.12.04-.04.01-.09.02-.12.04-.11.05-.13.11-.04.19.09.08.2.15.3.22.1.07.21.13.35.21-.1,0-.15,0-.21,0-.15.02-.23.1-.23.23,0,.14.07.24.22.27.09.02.18.03.29.05-.16.07-.34.08-.37.28-.03.17.09.25.21.32,0,.02-.01.03-.02.04-.19.22-.19.33.01.53.07.06.09.12.05.2-.02.05-.03.1-.04.15-.05.23,0,.33.2.43.08.04.07.08.05.15-.09.29-.05.39.22.52.1.05.12.1.09.2-.07.26.03.42.28.5.07.02.13.04.2.07-.03.07-.05.13-.06.18-.05.18-.02.23.16.25.08,0,.16.01.26.02-.19.26-.02.41.16.56-.62.37-1.3.42-1.96.53-.66.12-1.33.27-2.02.21Z"/>
    <path class="cls-2" d="M103.8,110.26c.04.07.1.11.14.17.07.1.17.12.28.1.13-.02.26-.02.39-.03.57-.07,1.13-.08,1.69.04.15.03.3.06.45.09-.17,0-.34-.01-.51-.04-.09-.01-.15.03-.18.11-.01.03,0,.08,0,.13.01,0,.03.02.06.02.28.08.56.15.84.22.06.01.13-.02.19-.05.06-.03.11-.07.18-.02.3.2.64.31,1,.38.29.06.58.13.88.13.41,0,.8-.15,1.19-.27.33-.1.64-.23.99-.26.39-.04.77-.1,1.16-.15.13-.02.27-.03.4-.03.1,0,.2.03.29-.03.02-.01.05,0,.07,0,.11.06.22.04.32-.03.12-.08.23-.07.35-.03.04.01.09.07.09.11-.01.14-.05.28-.08.41,0,.03-.02.06-.03.09.01,0,.03.02.04.03.06-.06.13-.12.18-.19.1-.13.12-.28.14-.43.03-.18.02-.35-.15-.46-.06-.04-.06-.08-.01-.14.03-.05.06-.12.05-.17-.06-.31-.29-.49-.55-.6-.23-.09-.49-.13-.74-.17-.28-.05-.57-.08-.85-.11-.09-.01-.15-.05-.14-.15.02-.21,0-.43.07-.63.2-.62.42-1.22.64-1.83.1-.27.22-.53.3-.8.09-.31.17-.62.21-.93.06-.44.08-.89.11-1.33.02-.27.03-.55.04-.82,0-.03-.04-.08-.06-.08-.16,0-.31.1-.33.26-.06.4-.12.8-.18,1.2-.02.16-.04.31-.06.47h-.03c0-.05-.03-.1-.03-.15,0-.26,0-.52,0-.79,0-.32,0-.64,0-.96,0-.03-.02-.09-.04-.09-.12-.04-.3.08-.32.21-.02.21-.04.43-.05.64-.03.4-.06.79-.09,1.2-.13-.68-.25-1.36-.38-2.06-.1.04-.18.07-.26.11-.08.03-.1.09-.09.18.03.23.06.45.08.68.04.32.08.63.12.97-.02-.05-.04-.09-.06-.13-.17-.41-.34-.83-.5-1.24-.02-.05-.03-.11-.11-.09-.2.05-.29.15-.27.36,0,.07.02.14.04.21.06.2.12.4.18.6.04.13.08.26.13.42-.37-.35-.54-.8-.83-1.18-.09.1-.18.18-.25.28-.03.03-.04.1-.02.14.05.13.1.26.18.37.18.23.38.44.58.66.11.12.21.24.32.36-.39-.29-.77-.61-1.14-.92-.03-.03-.08-.07-.11-.06-.09.02-.24.29-.21.37.06.13.13.26.2.39.02.04.06.08.09.12-.17-.04-.32-.09-.47-.14-.12-.04-.24-.13-.35.07-.16-.34-.34-.63-.45-.95-.19-.56-.26-1.14-.33-1.72-.02-.15-.03-.3-.05-.44-.19,0-.29.07-.32.23-.02.08-.03.17-.03.25,0,.22.01.44.02.66,0,.1.01.21.02.31-.07-.11-.11-.22-.15-.34-.14-.39-.28-.78-.42-1.16-.01-.04-.06-.09-.09-.09-.12,0-.25.12-.25.25,0,.17.01.34.06.5.06.22.15.43.23.65,0,0-.01,0-.02.01-.1-.17-.19-.34-.29-.51-.21-.38-.42-.75-.63-1.13-.03-.05-.05-.1-.12-.07-.19.1-.38.31-.33.56.05.22.15.41.28.59.18.23.37.46.53.7.07.11.1.25.14.37-.01,0-.02,0-.04.01-.01-.01-.02-.02-.03-.03-.49-.57-.98-1.15-1.47-1.72-.12-.14-.18-.13-.26.03-.03.05-.03.12-.03.18,0,.14.08.25.17.36.38.42.75.85,1.12,1.27.06.07.09.16.13.24-.01,0-.02.02-.04.02-.16-.14-.32-.29-.48-.43-.25-.22-.5-.45-.75-.67-.04-.04-.14-.05-.19-.03-.08.03-.07.12-.04.19.09.22.2.42.39.58.24.21.48.42.72.64.06.05.1.12.14.19,0,0-.02.02-.03.03-.09-.06-.19-.12-.28-.17-.18-.09-.35-.18-.54-.25-.06-.02-.15.03-.22.04.03.07.05.15.1.21.15.19.37.27.58.37.12.06.23.11.35.17-.19-.03-.37-.07-.55-.11-.07-.01-.14-.02-.21-.01-.05,0-.11.04-.14.08-.01.02.03.1.07.13.09.07.18.13.28.2-.04.01-.07.02-.1.03-.03,0-.07.02-.1.03-.09.04-.11.09-.03.15.08.06.16.12.24.17.08.05.17.1.28.17-.08,0-.12,0-.17,0-.12.02-.18.08-.19.18,0,.12.06.19.18.22.07.01.14.02.23.04-.13.05-.27.06-.3.22-.02.14.07.2.17.26,0,.02-.01.03-.02.03-.15.17-.15.26,0,.42.05.05.07.1.04.16-.01.04-.02.08-.03.12-.04.18,0,.26.16.35.06.03.06.07.04.12-.07.23-.04.31.17.42.08.04.09.08.07.16-.06.21.02.33.23.4.05.02.11.04.16.05-.02.06-.04.1-.05.15-.04.15-.02.18.13.2.06,0,.13.01.21.02-.15.21-.01.33.13.45-.5.3-1.04.33-1.57.43-.53.09-1.06.21-1.61.17Z"/>
  </g>
</svg>