<?xml version="1.0" encoding="UTF-8"?>
<svg id="Layer_1" data-name="Layer 1" xmlns="http://www.w3.org/2000/svg" version="1.1" viewBox="0 0 297.64 141.73">
  <defs>
    <style>
      .cls-1 {
        fill: #f9d521;
      }

      .cls-1, .cls-2 {
        stroke-width: 0px;
      }

      .cls-2 {
        fill: #231f20;
      }
    </style>
  </defs>
  <g>
    <path class="cls-2" d="M7.09,41.17h6.06v8.88l7.53-8.88h7.19l-8.28,9.41,8.57,12.47h-7.28l-5.5-8.13-2.22,2.47v5.66h-6.06v-21.88Z"/>
    <path class="cls-2" d="M38.15,41.01h5.85l9.32,22.04h-6.5l-1.59-3.91h-8.44l-1.56,3.91h-6.38l9.32-22.04ZM43.47,54.42l-2.44-6.22-2.47,6.22h4.91Z"/>
    <path class="cls-2" d="M54.79,41.17h10.35c3.35,0,5.66.88,7.13,2.38,1.28,1.25,1.94,2.94,1.94,5.1v.06c0,3.35-1.78,5.56-4.5,6.72l5.22,7.63h-7l-4.41-6.63h-2.66v6.63h-6.06v-21.88ZM64.86,51.67c2.06,0,3.25-1,3.25-2.59v-.06c0-1.72-1.25-2.59-3.28-2.59h-3.97v5.25h4Z"/>
    <path class="cls-2" d="M75.87,52.17v-.06c0-6.28,5.06-11.38,11.82-11.38s11.75,5.03,11.75,11.32v.06c0,6.28-5.06,11.38-11.82,11.38s-11.75-5.03-11.75-11.32ZM93.25,52.17v-.06c0-3.16-2.28-5.91-5.63-5.91s-5.53,2.69-5.53,5.85v.06c0,3.16,2.28,5.91,5.6,5.91s5.56-2.69,5.56-5.85Z"/>
    <path class="cls-2" d="M102.6,41.17h10.35c3.35,0,5.66.88,7.13,2.38,1.28,1.25,1.94,2.94,1.94,5.1v.06c0,3.35-1.78,5.56-4.5,6.72l5.22,7.63h-7l-4.41-6.63h-2.66v6.63h-6.06v-21.88ZM112.66,51.67c2.06,0,3.25-1,3.25-2.59v-.06c0-1.72-1.25-2.59-3.28-2.59h-3.97v5.25h4Z"/>
    <path class="cls-2" d="M125.2,41.17h6.1v21.88h-6.1v-21.88Z"/>
    <path class="cls-2" d="M7.09,78.68h8.44c7.82,0,12.35,4.5,12.35,10.82v.06c0,6.31-4.6,11-12.47,11H7.09v-21.88ZM15.62,95.19c3.63,0,6.03-2,6.03-5.53v-.06c0-3.5-2.41-5.53-6.03-5.53h-2.47v11.13h2.47Z"/>
    <path class="cls-2" d="M31,78.68h10.35c3.35,0,5.66.88,7.13,2.38,1.28,1.25,1.94,2.94,1.94,5.1v.06c0,3.35-1.78,5.56-4.5,6.72l5.22,7.63h-7l-4.41-6.63h-2.66v6.63h-6.06v-21.88ZM41.07,89.19c2.06,0,3.25-1,3.25-2.59v-.06c0-1.72-1.25-2.59-3.28-2.59h-3.97v5.25h4Z"/>
    <path class="cls-2" d="M53.61,78.68h6.1v21.88h-6.1v-21.88Z"/>
    <path class="cls-2" d="M61.95,78.68h6.78l4.97,13.85,4.97-13.85h6.66l-8.88,22.04h-5.63l-8.88-22.04Z"/>
    <path class="cls-2" d="M87.59,78.68h6.1v21.88h-6.1v-21.88Z"/>
    <path class="cls-2" d="M97.69,78.68h5.66l9,11.57v-11.57h6v21.88h-5.31l-9.35-12v12h-6v-21.88Z"/>
    <path class="cls-2" d="M121.48,89.69v-.06c0-6.38,5-11.38,11.79-11.38,3.85,0,6.57,1.19,8.88,3.19l-3.56,4.28c-1.56-1.31-3.13-2.06-5.28-2.06-3.16,0-5.6,2.66-5.6,6v.06c0,3.53,2.47,6.06,5.94,6.06,1.47,0,2.59-.31,3.5-.91v-2.66h-4.31v-4.44h10.07v9.85c-2.31,1.91-5.53,3.38-9.5,3.38-6.82,0-11.91-4.69-11.91-11.32Z"/>
    <path class="cls-2" d="M153.27,97.31l3.38-4.03c2.16,1.72,4.56,2.63,7.1,2.63,1.63,0,2.5-.56,2.5-1.5v-.06c0-.91-.72-1.41-3.69-2.09-4.66-1.06-8.25-2.38-8.25-6.88v-.06c0-4.06,3.22-7,8.47-7,3.72,0,6.63,1,9,2.91l-3.03,4.28c-2-1.41-4.19-2.16-6.13-2.16-1.47,0-2.19.63-2.19,1.41v.06c0,1,.75,1.44,3.78,2.13,5.03,1.09,8.16,2.72,8.16,6.82v.06c0,4.47-3.53,7.13-8.85,7.13-3.88,0-7.57-1.22-10.25-3.63Z"/>
    <path class="cls-2" d="M174.56,89.69v-.06c0-6.38,4.91-11.38,11.54-11.38,4.47,0,7.35,1.88,9.29,4.56l-4.56,3.53c-1.25-1.56-2.69-2.56-4.78-2.56-3.06,0-5.22,2.59-5.22,5.78v.06c0,3.28,2.16,5.85,5.22,5.85,2.28,0,3.63-1.06,4.94-2.66l4.56,3.25c-2.06,2.85-4.85,4.94-9.69,4.94-6.25,0-11.29-4.78-11.29-11.32Z"/>
    <path class="cls-2" d="M198.14,78.68h6.07v8.19h7.78v-8.19h6.06v21.88h-6.06v-8.32h-7.78v8.32h-6.07v-21.88Z"/>
    <path class="cls-2" d="M221.18,89.69v-.06c0-6.28,5.06-11.38,11.82-11.38s11.75,5.03,11.75,11.32v.06c0,6.28-5.06,11.38-11.82,11.38s-11.75-5.03-11.75-11.32ZM238.56,89.69v-.06c0-3.16-2.28-5.91-5.63-5.91s-5.53,2.69-5.53,5.85v.06c0,3.16,2.28,5.91,5.6,5.91s5.56-2.69,5.56-5.85Z"/>
    <path class="cls-2" d="M247.16,89.69v-.06c0-6.28,5.06-11.38,11.82-11.38s11.75,5.03,11.75,11.32v.06c0,6.28-5.06,11.38-11.82,11.38s-11.75-5.03-11.75-11.32ZM264.54,89.69v-.06c0-3.16-2.28-5.91-5.63-5.91s-5.53,2.69-5.53,5.85v.06c0,3.16,2.28,5.91,5.6,5.91s5.56-2.69,5.56-5.85Z"/>
    <path class="cls-2" d="M273.89,78.68h6.07v16.57h10.6v5.31h-16.66v-21.88Z"/>
  </g>
  <path class="cls-1" d="M137.39,40.95h73.42c1.16,0,2.1.94,2.1,2.1v.36h-75.52v-2.46h0Z"/>
  <path class="cls-1" d="M137.39,45.88h90.18c1.16,0,2.1.94,2.1,2.1v.36h-92.28v-2.46h0Z"/>
  <path class="cls-1" d="M137.39,50.8h106.94c1.16,0,2.1.94,2.1,2.1v.36h-109.04v-2.46h0Z"/>
  <path class="cls-1" d="M137.39,55.73h123.7c1.16,0,2.1.94,2.1,2.1v.36h-125.8v-2.46h0Z"/>
  <path class="cls-1" d="M137.39,60.66h140.46c1.16,0,2.1.94,2.1,2.1v.36h-142.56v-2.46h0Z"/>
  <path class="cls-2" d="M170.62,59.45c-.09.14-.2.23-.28.34-.15.2-.34.25-.58.21-.27-.04-.54-.04-.8-.07-1.16-.13-2.31-.16-3.46.09-.31.07-.61.12-.92.18.35,0,.7-.03,1.04-.07.19-.03.31.06.37.22.03.07,0,.16,0,.26-.03.01-.07.03-.11.05-.57.15-1.14.32-1.72.45-.12.03-.27-.04-.38-.1-.12-.07-.22-.13-.37-.04-.62.41-1.32.64-2.04.78-.6.11-1.2.26-1.8.27-.84.02-1.64-.3-2.44-.55-.67-.21-1.32-.47-2.03-.54-.79-.08-1.58-.2-2.37-.3-.27-.03-.55-.07-.82-.06-.2,0-.4.07-.59-.07-.03-.02-.11-.01-.15,0-.23.13-.46.08-.65-.05-.24-.17-.48-.15-.72-.06-.08.03-.18.15-.18.22.03.29.1.57.15.85.01.06.04.12.06.18-.03.02-.05.04-.08.06-.13-.13-.27-.25-.38-.39-.2-.26-.24-.57-.29-.89-.05-.37-.04-.71.31-.94.13-.08.12-.17.03-.29-.07-.09-.12-.24-.1-.36.11-.64.59-1.01,1.13-1.23.48-.19,1.01-.26,1.52-.34.58-.1,1.16-.15,1.74-.23.18-.02.3-.11.28-.31-.04-.43-.01-.88-.14-1.29-.41-1.26-.87-2.5-1.31-3.75-.2-.55-.45-1.08-.61-1.64-.18-.63-.34-1.27-.42-1.91-.12-.91-.16-1.82-.22-2.73-.04-.56-.06-1.12-.08-1.68,0-.06.07-.16.12-.16.33-.02.63.21.68.53.13.82.24,1.64.36,2.46.05.32.08.64.13.96h.07c.02-.11.05-.21.06-.32,0-.54,0-1.07,0-1.61,0-.65,0-1.31,0-1.96,0-.07.04-.17.08-.19.24-.09.62.17.65.44.04.44.07.88.11,1.32.06.81.12,1.63.17,2.45.26-1.4.52-2.79.78-4.21.21.08.37.15.54.22.16.07.21.19.19.36-.06.46-.11.92-.17,1.39-.08.65-.15,1.29-.24,1.98.05-.11.09-.19.12-.26.35-.85.69-1.7,1.03-2.54.04-.1.06-.22.22-.18.41.1.59.32.55.74-.01.15-.04.3-.08.44-.12.41-.25.81-.38,1.22-.08.27-.16.53-.26.86.76-.71,1.11-1.63,1.71-2.42.19.2.36.38.51.57.05.07.08.21.05.29-.11.26-.2.54-.38.75-.37.47-.78.91-1.18,1.36-.22.25-.44.5-.65.75.81-.6,1.57-1.24,2.34-1.88.07-.06.16-.14.23-.12.18.04.49.59.42.76-.12.27-.26.53-.4.8-.05.09-.13.17-.19.25.35-.07.66-.18.97-.28.24-.08.49-.26.71.14.33-.69.7-1.29.92-1.94.38-1.14.54-2.34.67-3.53.04-.3.07-.61.1-.9.39,0,.59.15.65.48.03.17.05.35.05.52,0,.45-.03.9-.05,1.35,0,.21-.02.43-.04.64.14-.22.23-.46.32-.69.29-.79.57-1.59.86-2.38.03-.07.13-.18.19-.17.26.01.52.25.51.51,0,.34-.03.69-.12,1.02-.12.45-.31.89-.47,1.33.01,0,.03.01.04.02.2-.35.4-.69.59-1.04.43-.77.86-1.54,1.3-2.31.06-.1.11-.21.25-.13.39.2.78.63.67,1.14-.1.45-.3.84-.58,1.21-.36.48-.76.93-1.09,1.43-.15.22-.2.5-.29.76.02,0,.05.02.07.03.02-.02.05-.04.07-.07,1.01-1.17,2.01-2.35,3.02-3.52.24-.29.36-.28.53.07.05.11.06.24.06.37,0,.29-.16.52-.35.73-.77.87-1.54,1.73-2.3,2.61-.12.14-.19.32-.28.48.02.02.05.03.07.05.33-.29.65-.59.98-.88.51-.46,1.02-.92,1.54-1.37.09-.07.28-.11.38-.06.15.07.15.24.09.4-.18.45-.42.86-.79,1.19-.49.43-.99.86-1.47,1.3-.12.11-.2.25-.3.38.02.02.04.04.06.05.19-.12.38-.25.58-.35.36-.18.73-.37,1.11-.51.12-.05.3.06.46.09-.06.14-.1.31-.2.42-.31.38-.76.55-1.19.76-.24.12-.48.23-.72.34.38-.05.75-.15,1.12-.23.14-.03.28-.05.42-.03.1.01.23.08.28.16.03.05-.06.2-.14.26-.18.15-.37.26-.58.41.08.03.14.04.2.06.07.02.14.03.2.06.19.08.22.19.07.32-.15.13-.33.25-.5.36-.17.11-.34.21-.57.34.16,0,.25,0,.35,0,.25.03.38.16.38.37,0,.24-.12.4-.36.44-.15.03-.29.05-.47.08.26.11.56.13.61.45.04.28-.15.41-.35.53.02.03.02.05.04.07.32.36.32.54-.02.86-.11.1-.14.2-.09.33.03.08.05.17.06.25.08.38.02.54-.33.71-.13.06-.12.14-.08.25.15.47.08.64-.36.86-.16.08-.19.16-.15.33.12.42-.04.68-.46.81-.11.03-.22.07-.33.11.04.12.08.21.1.3.09.3.04.37-.26.41-.13.01-.26.02-.43.04.31.43.03.67-.26.92,1.02.61,2.14.69,3.22.87,1.09.19,2.17.44,3.3.34Z"/>
  <path class="cls-2" d="M193.13,57.23c-.06.1-.14.16-.2.24-.11.14-.25.18-.42.15-.19-.03-.38-.03-.57-.05-.83-.1-1.65-.12-2.47.06-.22.05-.44.08-.66.13.25,0,.5-.02.74-.05.13-.02.22.04.26.16.02.05,0,.11,0,.18-.02,0-.05.02-.08.03-.41.11-.82.23-1.23.32-.08.02-.19-.03-.27-.07-.09-.05-.16-.1-.26-.03-.45.29-.94.46-1.46.55-.43.08-.85.19-1.28.2-.6.01-1.17-.21-1.74-.4-.48-.15-.94-.33-1.45-.38-.57-.05-1.13-.15-1.69-.22-.2-.02-.39-.05-.59-.05-.15,0-.29.05-.42-.05-.02-.02-.08-.01-.11,0-.16.09-.33.06-.46-.04-.17-.12-.34-.11-.51-.05-.06.02-.13.11-.13.16.02.2.07.41.11.61,0,.04.03.08.04.13-.02.01-.04.03-.06.04-.09-.09-.19-.18-.27-.28-.14-.19-.17-.41-.21-.63-.04-.27-.03-.51.22-.67.09-.06.09-.12.02-.21-.05-.07-.09-.17-.07-.25.08-.46.42-.72.81-.88.34-.14.72-.18,1.09-.25.41-.07.83-.11,1.24-.16.13-.02.21-.08.2-.22-.03-.31-.01-.63-.1-.92-.29-.9-.62-1.79-.94-2.68-.14-.39-.32-.77-.44-1.17-.13-.45-.24-.91-.3-1.37-.08-.65-.11-1.3-.16-1.95-.03-.4-.05-.8-.06-1.2,0-.04.05-.12.08-.12.23-.01.45.15.49.38.09.58.17,1.17.26,1.76.03.23.06.46.09.69h.05c.01-.08.04-.15.04-.23,0-.38,0-.77,0-1.15,0-.47,0-.94,0-1.4,0-.05.03-.12.06-.14.17-.06.45.12.46.31.03.31.05.63.08.94.04.58.08,1.16.12,1.75.18-1,.37-1.99.56-3.01.15.06.27.1.38.15.11.05.15.14.14.26-.04.33-.08.66-.12.99-.06.46-.11.92-.17,1.41.04-.08.06-.13.08-.19.25-.61.49-1.21.74-1.82.03-.07.04-.16.16-.13.3.07.42.23.39.53,0,.11-.03.21-.06.31-.09.29-.18.58-.27.87-.06.19-.12.38-.19.62.54-.51.79-1.16,1.22-1.73.13.15.26.27.36.41.04.05.06.15.04.2-.08.19-.15.38-.27.54-.26.34-.56.65-.84.97-.16.18-.31.36-.47.53.58-.43,1.12-.89,1.67-1.34.05-.04.12-.1.16-.09.13.03.35.42.3.54-.08.2-.19.38-.29.57-.04.06-.09.12-.13.18.25-.05.47-.13.69-.2.17-.06.35-.19.51.1.24-.49.5-.92.66-1.39.27-.81.38-1.67.48-2.52.03-.22.05-.43.07-.64.28,0,.42.1.47.34.02.12.04.25.04.37,0,.32-.02.64-.03.96,0,.15-.02.31-.03.46.1-.16.16-.33.23-.49.2-.57.4-1.14.61-1.7.02-.05.09-.13.14-.12.18,0,.37.18.37.36,0,.24-.02.5-.08.73-.09.32-.22.63-.33.95.01,0,.02.01.03.01.14-.25.28-.49.42-.74.31-.55.62-1.1.93-1.65.04-.07.08-.15.18-.1.28.14.56.45.48.81-.07.32-.22.6-.41.86-.26.34-.54.67-.78,1.02-.11.16-.14.36-.21.54.02,0,.03.01.05.02.02-.02.03-.03.05-.05.72-.84,1.44-1.68,2.15-2.52.17-.2.26-.2.38.05.04.08.05.17.05.26,0,.21-.12.37-.25.52-.55.62-1.1,1.24-1.65,1.86-.09.1-.13.23-.2.35.02.01.03.02.05.03.23-.21.47-.42.7-.63.36-.33.73-.66,1.1-.98.06-.05.2-.08.27-.05.11.05.11.17.06.28-.13.32-.3.62-.57.85-.35.31-.7.61-1.05.93-.08.08-.14.18-.21.27.01.01.03.03.04.04.14-.08.27-.18.42-.25.26-.13.52-.27.79-.37.09-.03.22.04.33.06-.05.1-.07.22-.14.3-.22.27-.54.39-.85.54-.17.08-.34.16-.52.24.27-.04.54-.11.8-.16.1-.02.2-.04.3-.02.07.01.17.06.2.12.02.03-.05.14-.1.19-.13.1-.27.19-.42.29.06.02.1.03.15.04.05.01.1.02.15.04.13.06.16.13.05.23-.11.09-.23.18-.36.26-.12.08-.24.15-.41.25.11,0,.18,0,.25,0,.18.02.27.12.27.27,0,.17-.09.28-.26.32-.1.02-.21.04-.34.06.19.08.4.09.44.32.03.2-.11.29-.25.38.01.02.02.04.03.05.23.26.23.39-.01.62-.08.07-.1.14-.06.24.02.06.03.12.05.18.06.27.01.38-.23.51-.09.05-.09.1-.06.18.1.33.06.45-.26.61-.11.06-.14.11-.1.24.08.3-.03.49-.33.58-.08.02-.15.05-.24.08.03.09.05.15.07.21.06.21.03.27-.19.29-.09,0-.18.02-.31.03.22.31.02.48-.19.66.73.44,1.53.49,2.3.62.78.13,1.55.31,2.36.25Z"/>
  <path class="cls-2" d="M212.84,56.12c-.05.08-.11.13-.16.19-.09.11-.2.14-.33.12-.15-.02-.31-.02-.46-.04-.66-.08-1.32-.09-1.98.05-.17.04-.35.07-.53.1.2,0,.4-.01.59-.04.11-.01.17.03.21.12.01.04,0,.09,0,.15-.02,0-.04.02-.06.03-.33.09-.65.18-.98.26-.07.02-.15-.02-.22-.06-.07-.04-.13-.08-.21-.02-.36.23-.75.37-1.17.44-.34.06-.68.15-1.03.16-.48.01-.94-.17-1.39-.32-.38-.12-.75-.27-1.16-.31-.45-.04-.9-.12-1.35-.17-.16-.02-.31-.04-.47-.04-.12,0-.23.04-.34-.04-.02-.01-.06,0-.09,0-.13.07-.26.05-.37-.03-.14-.1-.27-.09-.41-.04-.04.02-.11.09-.1.13.02.16.06.32.09.49,0,.03.02.07.04.1-.01.01-.03.02-.04.03-.07-.07-.15-.14-.22-.22-.11-.15-.14-.33-.17-.51-.03-.21-.02-.41.18-.54.07-.05.07-.1.02-.17-.04-.05-.07-.14-.06-.2.06-.37.34-.58.65-.7.27-.11.58-.15.87-.2.33-.05.66-.09.99-.13.11-.01.17-.06.16-.17-.02-.25,0-.51-.08-.74-.23-.72-.5-1.43-.75-2.14-.11-.31-.26-.62-.35-.94-.1-.36-.19-.72-.24-1.09-.07-.52-.09-1.04-.13-1.56-.02-.32-.04-.64-.05-.96,0-.03.04-.09.07-.09.19-.01.36.12.39.31.08.47.14.94.21,1.4.03.18.05.37.07.55h.04c.01-.06.03-.12.03-.18,0-.31,0-.61,0-.92,0-.37,0-.75,0-1.12,0-.04.02-.1.05-.11.14-.05.36.1.37.25.02.25.04.5.06.76.03.46.07.93.1,1.4.15-.8.29-1.59.45-2.41.12.05.21.08.31.12.09.04.12.11.11.21-.03.26-.06.53-.1.79-.04.37-.09.74-.13,1.13.03-.06.05-.11.07-.15.2-.48.39-.97.59-1.45.02-.06.03-.12.13-.1.24.05.34.18.32.42,0,.08-.02.17-.05.25-.07.23-.14.47-.22.7-.05.15-.09.31-.15.49.43-.41.64-.93.97-1.38.11.12.21.21.29.32.03.04.05.12.03.16-.06.15-.12.31-.21.43-.21.27-.45.52-.67.78-.12.14-.25.28-.37.43.46-.34.9-.71,1.34-1.07.04-.03.09-.08.13-.07.1.02.28.34.24.43-.07.16-.15.31-.23.45-.03.05-.07.09-.11.14.2-.04.38-.1.56-.16.14-.04.28-.15.41.08.19-.4.4-.74.52-1.11.22-.65.31-1.33.38-2.02.02-.17.04-.35.06-.52.22,0,.34.08.37.27.02.1.03.2.03.3,0,.26-.02.51-.03.77,0,.12-.01.24-.02.37.08-.13.13-.26.18-.39.16-.45.32-.91.49-1.36.02-.04.07-.1.11-.1.15,0,.29.14.29.29,0,.2-.02.4-.07.58-.07.26-.18.51-.27.76,0,0,.02,0,.03.01.11-.2.23-.39.34-.59.25-.44.49-.88.74-1.32.03-.06.06-.12.14-.08.22.11.44.36.38.65-.06.26-.17.48-.33.69-.21.27-.43.53-.63.82-.09.12-.11.29-.16.43.01,0,.03.01.04.02.01-.01.03-.02.04-.04.57-.67,1.15-1.34,1.72-2.01.14-.16.21-.16.3.04.03.06.04.14.04.21,0,.17-.09.3-.2.42-.44.5-.88.99-1.32,1.49-.07.08-.11.18-.16.28.01,0,.03.02.04.03.19-.17.37-.33.56-.5.29-.26.58-.53.88-.78.05-.04.16-.06.22-.04.09.04.09.14.05.23-.1.26-.24.49-.45.68-.28.25-.56.49-.84.74-.07.06-.11.15-.17.22.01.01.02.02.03.03.11-.07.22-.14.33-.2.21-.11.41-.21.63-.29.07-.03.17.03.26.05-.04.08-.06.17-.11.24-.18.22-.44.31-.68.43-.14.07-.27.13-.41.2.22-.03.43-.09.64-.13.08-.02.16-.03.24-.02.06,0,.13.05.16.09.02.03-.04.11-.08.15-.1.08-.21.15-.33.23.05.01.08.03.12.04.04.01.08.02.12.03.11.04.12.11.04.18-.09.08-.19.14-.28.2-.1.06-.2.12-.32.2.09,0,.15,0,.2,0,.14.02.22.09.22.21,0,.14-.07.23-.21.25-.08.02-.17.03-.27.05.15.06.32.07.35.26.03.16-.09.23-.2.3,0,.02.01.03.02.04.18.2.18.31-.01.49-.06.06-.08.11-.05.19.02.05.03.1.04.14.05.21,0,.31-.19.4-.07.04-.07.08-.05.14.08.27.05.36-.2.49-.09.05-.11.09-.08.19.07.24-.02.39-.26.46-.06.02-.12.04-.19.06.02.07.04.12.06.17.05.17.02.21-.15.23-.07,0-.15.01-.25.02.18.25.02.38-.15.53.58.35,1.22.39,1.84.5.62.11,1.24.25,1.89.2Z"/>
</svg>