<?xml version="1.0" encoding="UTF-8" standalone="no"?>
<svg
   id="Layer_1"
   data-name="Layer 1"
   version="1.1"
   viewBox="0 0 283.46999 60.280001"
   sodipodi:docname="logo.svg"
   width="283.47"
   height="60.279999"
   inkscape:version="1.3.2 (091e20ef0f, 2023-11-25)"
   xmlns:inkscape="http://www.inkscape.org/namespaces/inkscape"
   xmlns:sodipodi="http://sodipodi.sourceforge.net/DTD/sodipodi-0.dtd"
   xmlns="http://www.w3.org/2000/svg"
   xmlns:svg="http://www.w3.org/2000/svg">
  <sodipodi:namedview
     id="namedview27"
     pagecolor="#ffffff"
     bordercolor="#000000"
     borderopacity="0.25"
     inkscape:showpageshadow="2"
     inkscape:pageopacity="0.0"
     inkscape:pagecheckerboard="0"
     inkscape:deskcolor="#d1d1d1"
     inkscape:zoom="6.9580698"
     inkscape:cx="141.70597"
     inkscape:cy="30.252643"
     inkscape:window-width="2560"
     inkscape:window-height="1296"
     inkscape:window-x="0"
     inkscape:window-y="0"
     inkscape:window-maximized="1"
     inkscape:current-layer="g6" />
  <defs
     id="defs1">
    <style
       id="style1">
      .cls-1 {
        fill: #f9d521;
      }

      .cls-1, .cls-2 {
        stroke-width: 0px;
      }

      .cls-2 {
        fill: #231f20;
      }
    </style>
  </defs>
  <g
     id="g6"
     transform="translate(-7.09,-40.73)">
    <path
       class="cls-2"
       d="m 166.34,41.17 h 6.06 v 8.88 l 7.53,-8.88 h 7.19 l -8.28,9.41 8.57,12.47 h -7.28 l -5.5,-8.13 -2.22,2.47 v 5.66 h -6.06 V 41.17 Z"
       id="path1" />
    <path
       class="cls-2"
       d="m 197.41,41.01 h 5.85 l 9.32,22.04 h -6.5 l -1.59,-3.91 h -8.44 l -1.56,3.91 h -6.38 l 9.32,-22.04 z m 5.31,13.41 -2.44,-6.22 -2.47,6.22 z"
       id="path2" />
    <path
       class="cls-2"
       d="m 214.05,41.17 h 10.35 c 3.35,0 5.66,0.88 7.13,2.38 1.28,1.25 1.94,2.94 1.94,5.1 v 0.06 c 0,3.35 -1.78,5.56 -4.5,6.72 l 5.22,7.63 h -7 l -4.41,-6.63 h -2.66 v 6.63 h -6.06 V 41.18 Z m 10.06,10.5 c 2.06,0 3.25,-1 3.25,-2.59 v -0.06 c 0,-1.72 -1.25,-2.59 -3.28,-2.59 h -3.97 v 5.25 h 4 z"
       id="path3" />
    <path
       class="cls-2"
       d="m 235.12,52.17 v -0.06 c 0,-6.28 5.06,-11.38 11.82,-11.38 6.76,0 11.75,5.03 11.75,11.32 v 0.06 c 0,6.28 -5.06,11.38 -11.82,11.38 -6.76,0 -11.75,-5.03 -11.75,-11.32 z m 17.38,0 v -0.06 c 0,-3.16 -2.28,-5.91 -5.63,-5.91 -3.35,0 -5.53,2.69 -5.53,5.85 v 0.06 c 0,3.16 2.28,5.91 5.6,5.91 3.32,0 5.56,-2.69 5.56,-5.85 z"
       id="path4" />
    <path
       class="cls-2"
       d="m 261.85,41.17 h 10.35 c 3.35,0 5.66,0.88 7.13,2.38 1.28,1.25 1.94,2.94 1.94,5.1 v 0.06 c 0,3.35 -1.78,5.56 -4.5,6.72 l 5.22,7.63 h -7 l -4.41,-6.63 h -2.66 v 6.63 h -6.06 V 41.18 Z m 10.07,10.5 c 2.06,0 3.25,-1 3.25,-2.59 v -0.06 c 0,-1.72 -1.25,-2.59 -3.28,-2.59 h -3.97 v 5.25 h 4 z"
       id="path5" />
    <path
       class="cls-2"
       d="m 284.45,41.17 h 6.1 v 21.88 h -6.1 z"
       id="path6" />
  </g>
  <g
     id="g20"
     transform="translate(-7.09,-40.73)">
    <path
       class="cls-2"
       d="m 31,78.68 h 10.35 c 3.35,0 5.66,0.88 7.13,2.38 1.28,1.25 1.94,2.94 1.94,5.1 v 0.06 c 0,3.35 -1.78,5.56 -4.5,6.72 l 5.22,7.63 h -7 l -4.41,-6.63 h -2.66 v 6.63 H 31.01 V 78.69 Z m 10.07,10.51 c 2.06,0 3.25,-1 3.25,-2.59 v -0.06 c 0,-1.72 -1.25,-2.59 -3.28,-2.59 h -3.97 v 5.25 h 4 z"
       id="path7" />
    <g
       id="g19">
      <path
         class="cls-2"
         d="m 7.09,78.68 h 8.44 c 7.82,0 12.35,4.5 12.35,10.82 v 0.06 c 0,6.31 -4.6,11 -12.47,11 H 7.09 Z m 8.53,16.51 c 3.63,0 6.03,-2 6.03,-5.53 V 89.6 c 0,-3.5 -2.41,-5.53 -6.03,-5.53 H 13.15 V 95.2 c 0,0 2.47,0 2.47,0 z"
         id="path8" />
      <path
         class="cls-2"
         d="m 53.61,78.68 h 6.1 v 21.88 h -6.1 z"
         id="path9" />
      <path
         class="cls-2"
         d="m 61.95,78.68 h 6.78 l 4.97,13.85 4.97,-13.85 h 6.66 l -8.88,22.04 H 70.82 L 61.94,78.68 Z"
         id="path10" />
      <path
         class="cls-2"
         d="m 87.59,78.68 h 6.1 v 21.88 h -6.1 z"
         id="path11" />
      <path
         class="cls-2"
         d="m 97.69,78.68 h 5.66 l 9,11.57 V 78.68 h 6 v 21.88 h -5.31 l -9.35,-12 v 12 c 0,0 -6,0 -6,0 z"
         id="path12" />
      <path
         class="cls-2"
         d="m 121.48,89.69 v -0.06 c 0,-6.38 5,-11.38 11.79,-11.38 3.85,0 6.57,1.19 8.88,3.19 l -3.56,4.28 c -1.56,-1.31 -3.13,-2.06 -5.28,-2.06 -3.16,0 -5.6,2.66 -5.6,6 v 0.06 c 0,3.53 2.47,6.06 5.94,6.06 1.47,0 2.59,-0.31 3.5,-0.91 v -2.66 h -4.31 v -4.44 h 10.07 v 9.85 c -2.31,1.91 -5.53,3.38 -9.5,3.38 -6.82,0 -11.91,-4.69 -11.91,-11.32 z"
         id="path13" />
      <path
         class="cls-2"
         d="m 153.27,97.31 3.38,-4.03 c 2.16,1.72 4.56,2.63 7.1,2.63 1.63,0 2.5,-0.56 2.5,-1.5 v -0.06 c 0,-0.91 -0.72,-1.41 -3.69,-2.09 -4.66,-1.06 -8.25,-2.38 -8.25,-6.88 v -0.06 c 0,-4.06 3.22,-7 8.47,-7 3.72,0 6.63,1 9,2.91 l -3.03,4.28 c -2,-1.41 -4.19,-2.16 -6.13,-2.16 -1.47,0 -2.19,0.63 -2.19,1.41 v 0.06 c 0,1 0.75,1.44 3.78,2.13 5.03,1.09 8.16,2.72 8.16,6.82 v 0.06 c 0,4.47 -3.53,7.13 -8.85,7.13 -3.88,0 -7.57,-1.22 -10.25,-3.63 z"
         id="path14" />
      <path
         class="cls-2"
         d="m 174.56,89.69 v -0.06 c 0,-6.38 4.91,-11.38 11.54,-11.38 4.47,0 7.35,1.88 9.29,4.56 l -4.56,3.53 c -1.25,-1.56 -2.69,-2.56 -4.78,-2.56 -3.06,0 -5.22,2.59 -5.22,5.78 v 0.06 c 0,3.28 2.16,5.85 5.22,5.85 2.28,0 3.63,-1.06 4.94,-2.66 l 4.56,3.25 c -2.06,2.85 -4.85,4.94 -9.69,4.94 -6.25,0 -11.29,-4.78 -11.29,-11.32 z"
         id="path15" />
      <path
         class="cls-2"
         d="m 198.14,78.68 h 6.07 v 8.19 h 7.78 v -8.19 c 0,0 6.06,0 6.06,0 v 21.88 h -6.06 v -8.32 c 0,0 -7.78,0 -7.78,0 v 8.32 h -6.07 z"
         id="path16" />
      <path
         class="cls-2"
         d="m 221.18,89.69 v -0.06 c 0,-6.28 5.06,-11.38 11.82,-11.38 6.76,0 11.75,5.03 11.75,11.32 v 0.06 c 0,6.28 -5.06,11.38 -11.82,11.38 -6.76,0 -11.75,-5.03 -11.75,-11.32 z m 17.38,0 v -0.06 c 0,-3.16 -2.28,-5.91 -5.63,-5.91 -3.35,0 -5.53,2.69 -5.53,5.85 v 0.06 c 0,3.16 2.28,5.91 5.6,5.91 3.32,0 5.56,-2.69 5.56,-5.85 z"
         id="path17" />
      <path
         class="cls-2"
         d="m 247.16,89.69 v -0.06 c 0,-6.28 5.06,-11.38 11.82,-11.38 6.76,0 11.75,5.03 11.75,11.32 v 0.06 c 0,6.28 -5.06,11.38 -11.82,11.38 -6.76,0 -11.75,-5.03 -11.75,-11.32 z m 17.38,0 v -0.06 c 0,-3.16 -2.28,-5.91 -5.63,-5.91 -3.35,0 -5.53,2.69 -5.53,5.85 v 0.06 c 0,3.16 2.28,5.91 5.6,5.91 3.32,0 5.56,-2.69 5.56,-5.85 z"
         id="path18" />
      <path
         class="cls-2"
         d="m 273.89,78.68 h 6.07 v 16.57 h 10.6 v 5.31 H 273.9 V 78.68 Z"
         id="path19" />
    </g>
  </g>
  <path
     class="cls-1"
     d="M 153.16,2.68 H 77.64 V 2.32 c 0,-1.16 0.94,-2.1 2.1,-2.1 h 73.42 z"
     id="path20" />
  <path
     class="cls-1"
     d="M 153.16,7.6 H 60.88 V 7.24 c 0,-1.16 0.94,-2.1 2.1,-2.1 h 90.18 z"
     id="path21" />
  <path
     class="cls-1"
     d="M 153.16,12.54 H 44.12 v -0.36 c 0,-1.16 0.94,-2.1 2.1,-2.1 h 106.94 z"
     id="path22" />
  <path
     class="cls-1"
     d="M 153.16,17.46 H 27.36 V 17.1 c 0,-1.16 0.94,-2.1 2.1,-2.1 h 123.7 z"
     id="path23" />
  <path
     class="cls-1"
     d="M 153.16,22.39 H 10.6 v -0.36 c 0,-1.16 0.94,-2.1 2.1,-2.1 h 140.46 z"
     id="path24" />
  <g
     id="g27"
     transform="translate(-7.09,-40.73)">
    <path
       class="cls-2"
       d="m 127.02,59.45 c 0.09,0.14 0.2,0.23 0.28,0.34 0.15,0.2 0.34,0.25 0.58,0.21 0.27,-0.04 0.54,-0.04 0.8,-0.07 1.16,-0.13 2.31,-0.16 3.46,0.09 0.31,0.07 0.61,0.12 0.92,0.18 -0.35,0 -0.7,-0.03 -1.04,-0.07 -0.19,-0.03 -0.31,0.06 -0.37,0.22 -0.03,0.07 0,0.16 0,0.26 0.03,0.01 0.07,0.03 0.11,0.05 0.57,0.15 1.14,0.32 1.72,0.45 0.12,0.03 0.27,-0.04 0.38,-0.1 0.12,-0.07 0.22,-0.13 0.37,-0.04 0.62,0.41 1.32,0.64 2.04,0.78 0.6,0.11 1.2,0.26 1.8,0.27 0.84,0.02 1.64,-0.3 2.44,-0.55 0.67,-0.21 1.32,-0.47 2.03,-0.54 0.79,-0.08 1.58,-0.2 2.37,-0.3 0.27,-0.03 0.55,-0.07 0.82,-0.06 0.2,0 0.4,0.07 0.59,-0.07 0.03,-0.02 0.11,-0.01 0.15,0 0.23,0.13 0.46,0.08 0.65,-0.05 0.24,-0.17 0.48,-0.15 0.72,-0.06 0.08,0.03 0.18,0.15 0.18,0.22 -0.03,0.29 -0.1,0.57 -0.15,0.85 -0.01,0.06 -0.04,0.12 -0.06,0.18 0.03,0.02 0.05,0.04 0.08,0.06 0.13,-0.13 0.27,-0.25 0.38,-0.39 0.2,-0.26 0.24,-0.57 0.29,-0.89 0.05,-0.37 0.04,-0.71 -0.31,-0.94 -0.13,-0.08 -0.12,-0.17 -0.03,-0.29 0.07,-0.09 0.12,-0.24 0.1,-0.36 -0.11,-0.64 -0.59,-1.01 -1.13,-1.23 -0.48,-0.19 -1.01,-0.26 -1.52,-0.34 -0.58,-0.1 -1.16,-0.15 -1.74,-0.23 -0.18,-0.02 -0.3,-0.11 -0.28,-0.31 0.04,-0.43 0.01,-0.88 0.14,-1.29 0.41,-1.26 0.87,-2.5 1.31,-3.75 0.2,-0.55 0.45,-1.08 0.61,-1.64 0.18,-0.63 0.34,-1.27 0.42,-1.91 0.12,-0.91 0.16,-1.82 0.22,-2.73 0.04,-0.56 0.06,-1.12 0.08,-1.68 0,-0.06 -0.07,-0.16 -0.12,-0.16 -0.33,-0.02 -0.63,0.21 -0.68,0.53 -0.13,0.82 -0.24,1.64 -0.36,2.46 -0.05,0.32 -0.08,0.64 -0.13,0.96 h -0.07 c -0.02,-0.11 -0.05,-0.21 -0.06,-0.32 0,-0.54 0,-1.07 0,-1.61 0,-0.65 0,-1.31 0,-1.96 0,-0.07 -0.04,-0.17 -0.08,-0.19 -0.24,-0.09 -0.62,0.17 -0.65,0.44 -0.04,0.44 -0.07,0.88 -0.11,1.32 -0.06,0.81 -0.12,1.63 -0.17,2.45 -0.26,-1.4 -0.52,-2.79 -0.78,-4.21 -0.21,0.08 -0.37,0.15 -0.54,0.22 -0.16,0.07 -0.21,0.19 -0.19,0.36 0.06,0.46 0.11,0.92 0.17,1.39 0.08,0.65 0.15,1.29 0.24,1.98 -0.05,-0.11 -0.09,-0.19 -0.12,-0.26 -0.35,-0.85 -0.69,-1.7 -1.03,-2.54 -0.04,-0.1 -0.06,-0.22 -0.22,-0.18 -0.41,0.1 -0.59,0.32 -0.55,0.74 0.01,0.15 0.04,0.3 0.08,0.44 0.12,0.41 0.25,0.81 0.38,1.22 0.08,0.27 0.16,0.53 0.26,0.86 -0.76,-0.71 -1.11,-1.63 -1.71,-2.42 -0.19,0.2 -0.36,0.38 -0.51,0.57 -0.05,0.07 -0.08,0.21 -0.05,0.29 0.11,0.26 0.2,0.54 0.38,0.75 0.37,0.47 0.78,0.91 1.18,1.36 0.22,0.25 0.44,0.5 0.65,0.75 -0.81,-0.6 -1.57,-1.24 -2.34,-1.88 -0.07,-0.06 -0.16,-0.14 -0.23,-0.12 -0.18,0.04 -0.49,0.59 -0.42,0.76 0.12,0.27 0.26,0.53 0.4,0.8 0.05,0.09 0.13,0.17 0.19,0.25 -0.35,-0.07 -0.66,-0.18 -0.97,-0.28 -0.24,-0.08 -0.49,-0.26 -0.71,0.14 -0.33,-0.69 -0.7,-1.29 -0.92,-1.94 -0.38,-1.14 -0.54,-2.34 -0.67,-3.53 -0.04,-0.3 -0.07,-0.61 -0.1,-0.9 -0.39,0 -0.59,0.15 -0.65,0.48 -0.03,0.17 -0.05,0.35 -0.05,0.52 0,0.45 0.03,0.9 0.05,1.35 0,0.21 0.02,0.43 0.04,0.64 -0.14,-0.22 -0.23,-0.46 -0.32,-0.69 -0.29,-0.79 -0.57,-1.59 -0.86,-2.38 -0.03,-0.07 -0.13,-0.18 -0.19,-0.17 -0.26,0.01 -0.52,0.25 -0.51,0.51 0,0.34 0.03,0.69 0.12,1.02 0.12,0.45 0.31,0.89 0.47,1.33 -0.01,0 -0.03,0.01 -0.04,0.02 -0.2,-0.35 -0.4,-0.69 -0.59,-1.04 -0.43,-0.77 -0.86,-1.54 -1.3,-2.31 -0.06,-0.1 -0.11,-0.21 -0.25,-0.13 -0.39,0.2 -0.78,0.63 -0.67,1.14 0.1,0.45 0.3,0.84 0.58,1.21 0.36,0.48 0.76,0.93 1.09,1.43 0.15,0.22 0.2,0.5 0.29,0.76 -0.02,0 -0.05,0.02 -0.07,0.03 -0.02,-0.02 -0.05,-0.04 -0.07,-0.07 -1.01,-1.17 -2.01,-2.35 -3.02,-3.52 -0.24,-0.29 -0.36,-0.28 -0.53,0.07 -0.05,0.11 -0.06,0.24 -0.06,0.37 0,0.29 0.16,0.52 0.35,0.73 0.77,0.87 1.54,1.73 2.3,2.61 0.12,0.14 0.19,0.32 0.28,0.48 -0.02,0.02 -0.05,0.03 -0.07,0.05 -0.33,-0.29 -0.65,-0.59 -0.98,-0.88 -0.51,-0.46 -1.02,-0.92 -1.54,-1.37 -0.09,-0.07 -0.28,-0.11 -0.38,-0.06 -0.15,0.07 -0.15,0.24 -0.09,0.4 0.18,0.45 0.42,0.86 0.79,1.19 0.49,0.43 0.99,0.86 1.47,1.3 0.12,0.11 0.2,0.25 0.3,0.38 -0.02,0.02 -0.04,0.04 -0.06,0.05 -0.19,-0.12 -0.38,-0.25 -0.58,-0.35 -0.36,-0.18 -0.73,-0.37 -1.11,-0.51 -0.12,-0.05 -0.3,0.06 -0.46,0.09 0.06,0.14 0.1,0.31 0.2,0.42 0.31,0.38 0.76,0.55 1.19,0.76 0.24,0.12 0.48,0.23 0.72,0.34 -0.38,-0.05 -0.75,-0.15 -1.12,-0.23 -0.14,-0.03 -0.28,-0.05 -0.42,-0.03 -0.1,0.01 -0.23,0.08 -0.28,0.16 -0.03,0.05 0.06,0.2 0.14,0.26 0.18,0.15 0.37,0.26 0.58,0.41 -0.08,0.03 -0.14,0.04 -0.2,0.06 -0.07,0.02 -0.14,0.03 -0.2,0.06 -0.19,0.08 -0.22,0.19 -0.07,0.32 0.15,0.13 0.33,0.25 0.5,0.36 0.17,0.11 0.34,0.21 0.57,0.34 -0.16,0 -0.25,0 -0.35,0 -0.25,0.03 -0.38,0.16 -0.38,0.37 0,0.24 0.12,0.4 0.36,0.44 0.15,0.03 0.29,0.05 0.47,0.08 -0.26,0.11 -0.56,0.13 -0.61,0.45 -0.04,0.28 0.15,0.41 0.35,0.53 -0.02,0.03 -0.02,0.05 -0.04,0.07 -0.32,0.36 -0.32,0.54 0.02,0.86 0.11,0.1 0.14,0.2 0.09,0.33 -0.03,0.08 -0.05,0.17 -0.06,0.25 -0.08,0.38 -0.02,0.54 0.33,0.71 0.13,0.06 0.12,0.14 0.08,0.25 -0.15,0.47 -0.08,0.64 0.36,0.86 0.16,0.08 0.19,0.16 0.15,0.33 -0.12,0.42 0.04,0.68 0.46,0.81 0.11,0.03 0.22,0.07 0.33,0.11 -0.04,0.12 -0.08,0.21 -0.1,0.3 -0.09,0.3 -0.04,0.37 0.26,0.41 0.13,0.01 0.26,0.02 0.43,0.04 -0.31,0.43 -0.03,0.67 0.26,0.92 -1.02,0.61 -2.14,0.69 -3.22,0.87 -1.09,0.19 -2.17,0.44 -3.3,0.34 z"
       id="path25" />
    <path
       class="cls-2"
       d="m 104.5,57.23 c 0.06,0.1 0.14,0.16 0.2,0.24 0.11,0.14 0.25,0.18 0.42,0.15 0.19,-0.03 0.38,-0.03 0.57,-0.05 0.83,-0.1 1.65,-0.12 2.47,0.06 0.22,0.05 0.44,0.08 0.66,0.13 -0.25,0 -0.5,-0.02 -0.74,-0.05 -0.13,-0.02 -0.22,0.04 -0.26,0.16 -0.02,0.05 0,0.11 0,0.18 0.02,0 0.05,0.02 0.08,0.03 0.41,0.11 0.82,0.23 1.23,0.32 0.08,0.02 0.19,-0.03 0.27,-0.07 0.09,-0.05 0.16,-0.1 0.26,-0.03 0.45,0.29 0.94,0.46 1.46,0.55 0.43,0.08 0.85,0.19 1.28,0.2 0.6,0.01 1.17,-0.21 1.74,-0.4 0.48,-0.15 0.94,-0.33 1.45,-0.38 0.57,-0.05 1.13,-0.15 1.69,-0.22 0.2,-0.02 0.39,-0.05 0.59,-0.05 0.15,0 0.29,0.05 0.42,-0.05 0.02,-0.02 0.08,-0.01 0.11,0 0.16,0.09 0.33,0.06 0.46,-0.04 0.17,-0.12 0.34,-0.11 0.51,-0.05 0.06,0.02 0.13,0.11 0.13,0.16 -0.02,0.2 -0.07,0.41 -0.11,0.61 0,0.04 -0.03,0.08 -0.04,0.13 0.02,0.01 0.04,0.03 0.06,0.04 0.09,-0.09 0.19,-0.18 0.27,-0.28 0.14,-0.19 0.17,-0.41 0.21,-0.63 0.04,-0.27 0.03,-0.51 -0.22,-0.67 -0.09,-0.06 -0.09,-0.12 -0.02,-0.21 0.05,-0.07 0.09,-0.17 0.07,-0.25 -0.08,-0.46 -0.42,-0.72 -0.81,-0.88 -0.34,-0.14 -0.72,-0.18 -1.09,-0.25 -0.41,-0.07 -0.83,-0.11 -1.24,-0.16 -0.13,-0.02 -0.21,-0.08 -0.2,-0.22 0.03,-0.31 0.01,-0.63 0.1,-0.92 0.29,-0.9 0.62,-1.79 0.94,-2.68 0.14,-0.39 0.32,-0.77 0.44,-1.17 0.13,-0.45 0.24,-0.91 0.3,-1.37 0.08,-0.65 0.11,-1.3 0.16,-1.95 0.03,-0.4 0.05,-0.8 0.06,-1.2 0,-0.04 -0.05,-0.12 -0.08,-0.12 -0.23,-0.01 -0.45,0.15 -0.49,0.38 -0.09,0.58 -0.17,1.17 -0.26,1.76 -0.03,0.23 -0.06,0.46 -0.09,0.69 h -0.05 c -0.01,-0.08 -0.04,-0.15 -0.04,-0.23 0,-0.38 0,-0.77 0,-1.15 0,-0.47 0,-0.94 0,-1.4 0,-0.05 -0.03,-0.12 -0.06,-0.14 -0.17,-0.06 -0.45,0.12 -0.46,0.31 -0.03,0.31 -0.05,0.63 -0.08,0.94 -0.04,0.58 -0.08,1.16 -0.12,1.75 -0.18,-1 -0.37,-1.99 -0.56,-3.01 -0.15,0.06 -0.27,0.1 -0.38,0.15 -0.11,0.05 -0.15,0.14 -0.14,0.26 0.04,0.33 0.08,0.66 0.12,0.99 0.06,0.46 0.11,0.92 0.17,1.41 -0.04,-0.08 -0.06,-0.13 -0.08,-0.19 -0.25,-0.61 -0.49,-1.21 -0.74,-1.82 -0.03,-0.07 -0.04,-0.16 -0.16,-0.13 -0.3,0.07 -0.42,0.23 -0.39,0.53 0,0.11 0.03,0.21 0.06,0.31 0.09,0.29 0.18,0.58 0.27,0.87 0.06,0.19 0.12,0.38 0.19,0.62 -0.54,-0.51 -0.79,-1.16 -1.22,-1.73 -0.13,0.15 -0.26,0.27 -0.36,0.41 -0.04,0.05 -0.06,0.15 -0.04,0.2 0.08,0.19 0.15,0.38 0.27,0.54 0.26,0.34 0.56,0.65 0.84,0.97 0.16,0.18 0.31,0.36 0.47,0.53 -0.58,-0.43 -1.12,-0.89 -1.67,-1.34 -0.05,-0.04 -0.12,-0.1 -0.16,-0.09 -0.13,0.03 -0.35,0.42 -0.3,0.54 0.08,0.2 0.19,0.38 0.29,0.57 0.04,0.06 0.09,0.12 0.13,0.18 -0.25,-0.05 -0.47,-0.13 -0.69,-0.2 -0.17,-0.06 -0.35,-0.19 -0.51,0.1 -0.24,-0.49 -0.5,-0.92 -0.66,-1.39 -0.27,-0.81 -0.38,-1.67 -0.48,-2.52 -0.03,-0.22 -0.05,-0.43 -0.07,-0.64 -0.28,0 -0.42,0.1 -0.47,0.34 -0.02,0.12 -0.04,0.25 -0.04,0.37 0,0.32 0.02,0.64 0.03,0.96 0,0.15 0.02,0.31 0.03,0.46 -0.1,-0.16 -0.16,-0.33 -0.23,-0.49 -0.2,-0.57 -0.4,-1.14 -0.61,-1.7 -0.02,-0.05 -0.09,-0.13 -0.14,-0.12 -0.18,0 -0.37,0.18 -0.37,0.36 0,0.24 0.02,0.5 0.08,0.73 0.09,0.32 0.22,0.63 0.33,0.95 -0.01,0 -0.02,0.01 -0.03,0.01 -0.14,-0.25 -0.28,-0.49 -0.42,-0.74 -0.31,-0.55 -0.62,-1.1 -0.93,-1.65 -0.04,-0.07 -0.08,-0.15 -0.18,-0.1 -0.28,0.14 -0.56,0.45 -0.48,0.81 0.07,0.32 0.22,0.6 0.41,0.86 0.26,0.34 0.54,0.67 0.78,1.02 0.11,0.16 0.14,0.36 0.21,0.54 -0.02,0 -0.03,0.01 -0.05,0.02 -0.02,-0.02 -0.03,-0.03 -0.05,-0.05 -0.72,-0.84 -1.44,-1.68 -2.15,-2.52 -0.17,-0.2 -0.26,-0.2 -0.38,0.05 -0.04,0.08 -0.05,0.17 -0.05,0.26 0,0.21 0.12,0.37 0.25,0.52 0.55,0.62 1.1,1.24 1.65,1.86 0.09,0.1 0.13,0.23 0.2,0.35 -0.02,0.01 -0.03,0.02 -0.05,0.03 -0.23,-0.21 -0.47,-0.42 -0.7,-0.63 -0.36,-0.33 -0.73,-0.66 -1.1,-0.98 -0.06,-0.05 -0.2,-0.08 -0.27,-0.05 -0.11,0.05 -0.11,0.17 -0.06,0.28 0.13,0.32 0.3,0.62 0.57,0.85 0.35,0.31 0.7,0.61 1.05,0.93 0.08,0.08 0.14,0.18 0.21,0.27 -0.01,0.01 -0.03,0.03 -0.04,0.04 -0.14,-0.08 -0.27,-0.18 -0.42,-0.25 -0.26,-0.13 -0.52,-0.27 -0.79,-0.37 -0.09,-0.03 -0.22,0.04 -0.33,0.06 0.05,0.1 0.07,0.22 0.14,0.3 0.22,0.27 0.54,0.39 0.85,0.54 0.17,0.08 0.34,0.16 0.52,0.24 -0.27,-0.04 -0.54,-0.11 -0.8,-0.16 -0.1,-0.02 -0.2,-0.04 -0.3,-0.02 -0.07,0.01 -0.17,0.06 -0.2,0.12 -0.02,0.03 0.05,0.14 0.1,0.19 0.13,0.1 0.27,0.19 0.42,0.29 -0.06,0.02 -0.1,0.03 -0.15,0.04 -0.05,0.01 -0.1,0.02 -0.15,0.04 -0.13,0.06 -0.16,0.13 -0.05,0.23 0.11,0.09 0.23,0.18 0.36,0.26 0.12,0.08 0.24,0.15 0.41,0.25 -0.11,0 -0.18,0 -0.25,0 -0.18,0.02 -0.27,0.12 -0.27,0.27 0,0.17 0.09,0.28 0.26,0.32 0.1,0.02 0.21,0.04 0.34,0.06 -0.19,0.08 -0.4,0.09 -0.44,0.32 -0.03,0.2 0.11,0.29 0.25,0.38 -0.01,0.02 -0.02,0.04 -0.03,0.05 -0.23,0.26 -0.23,0.39 0.01,0.62 0.08,0.07 0.1,0.14 0.06,0.24 -0.02,0.06 -0.03,0.12 -0.05,0.18 -0.06,0.27 -0.01,0.38 0.23,0.51 0.09,0.05 0.09,0.1 0.06,0.18 -0.1,0.33 -0.06,0.45 0.26,0.61 0.11,0.06 0.14,0.11 0.1,0.24 -0.08,0.3 0.03,0.49 0.33,0.58 0.08,0.02 0.15,0.05 0.24,0.08 -0.03,0.09 -0.05,0.15 -0.07,0.21 -0.06,0.21 -0.03,0.27 0.19,0.29 0.09,0 0.18,0.02 0.31,0.03 -0.22,0.31 -0.02,0.48 0.19,0.66 -0.73,0.44 -1.53,0.49 -2.3,0.62 -0.78,0.13 -1.55,0.31 -2.36,0.25 z"
       id="path26" />
    <path
       class="cls-2"
       d="m 84.8,56.12 c 0.05,0.08 0.11,0.13 0.16,0.19 0.09,0.11 0.2,0.14 0.33,0.12 0.15,-0.02 0.31,-0.02 0.46,-0.04 0.66,-0.08 1.32,-0.09 1.98,0.05 0.17,0.04 0.35,0.07 0.53,0.1 -0.2,0 -0.4,-0.01 -0.59,-0.04 -0.11,-0.01 -0.17,0.03 -0.21,0.12 -0.01,0.04 0,0.09 0,0.15 0.02,0 0.04,0.02 0.06,0.03 0.33,0.09 0.65,0.18 0.98,0.26 0.07,0.02 0.15,-0.02 0.22,-0.06 0.07,-0.04 0.13,-0.08 0.21,-0.02 0.36,0.23 0.75,0.37 1.17,0.44 0.34,0.06 0.68,0.15 1.03,0.16 0.48,0.01 0.94,-0.17 1.39,-0.32 0.38,-0.12 0.75,-0.27 1.16,-0.31 0.45,-0.04 0.9,-0.12 1.35,-0.17 0.16,-0.02 0.31,-0.04 0.47,-0.04 0.12,0 0.23,0.04 0.34,-0.04 0.02,-0.01 0.06,0 0.09,0 0.13,0.07 0.26,0.05 0.37,-0.03 0.14,-0.1 0.27,-0.09 0.41,-0.04 0.04,0.02 0.11,0.09 0.1,0.13 -0.02,0.16 -0.06,0.32 -0.09,0.49 0,0.03 -0.02,0.07 -0.04,0.1 0.01,0.01 0.03,0.02 0.04,0.03 0.07,-0.07 0.15,-0.14 0.22,-0.22 0.11,-0.15 0.14,-0.33 0.17,-0.51 0.03,-0.21 0.02,-0.41 -0.18,-0.54 -0.07,-0.05 -0.07,-0.1 -0.02,-0.17 0.04,-0.05 0.07,-0.14 0.06,-0.2 -0.06,-0.37 -0.34,-0.58 -0.65,-0.7 -0.27,-0.11 -0.58,-0.15 -0.87,-0.2 -0.33,-0.05 -0.66,-0.09 -0.99,-0.13 -0.11,-0.01 -0.17,-0.06 -0.16,-0.17 0.02,-0.25 0,-0.51 0.08,-0.74 0.23,-0.72 0.5,-1.43 0.75,-2.14 0.11,-0.31 0.26,-0.62 0.35,-0.94 0.1,-0.36 0.19,-0.72 0.24,-1.09 0.07,-0.52 0.09,-1.04 0.13,-1.56 0.02,-0.32 0.04,-0.64 0.05,-0.96 0,-0.03 -0.04,-0.09 -0.07,-0.09 -0.19,-0.01 -0.36,0.12 -0.39,0.31 -0.08,0.47 -0.14,0.94 -0.21,1.4 -0.03,0.18 -0.05,0.37 -0.07,0.55 h -0.04 c -0.01,-0.06 -0.03,-0.12 -0.03,-0.18 0,-0.31 0,-0.61 0,-0.92 0,-0.37 0,-0.75 0,-1.12 0,-0.04 -0.02,-0.1 -0.05,-0.11 -0.14,-0.05 -0.36,0.1 -0.37,0.25 -0.02,0.25 -0.04,0.5 -0.06,0.76 -0.03,0.46 -0.07,0.93 -0.1,1.4 -0.15,-0.8 -0.29,-1.59 -0.45,-2.41 -0.12,0.05 -0.21,0.08 -0.31,0.12 -0.09,0.04 -0.12,0.11 -0.11,0.21 0.03,0.26 0.06,0.53 0.1,0.79 0.04,0.37 0.09,0.74 0.13,1.13 -0.03,-0.06 -0.05,-0.11 -0.07,-0.15 -0.2,-0.48 -0.39,-0.97 -0.59,-1.45 -0.02,-0.06 -0.03,-0.12 -0.13,-0.1 -0.24,0.05 -0.34,0.18 -0.32,0.42 0,0.08 0.02,0.17 0.05,0.25 0.07,0.23 0.14,0.47 0.22,0.7 0.05,0.15 0.09,0.31 0.15,0.49 -0.43,-0.41 -0.64,-0.93 -0.97,-1.38 -0.11,0.12 -0.21,0.21 -0.29,0.32 -0.03,0.04 -0.05,0.12 -0.03,0.16 0.06,0.15 0.12,0.31 0.21,0.43 0.21,0.27 0.45,0.52 0.67,0.78 0.12,0.14 0.25,0.28 0.37,0.43 -0.46,-0.34 -0.9,-0.71 -1.34,-1.07 -0.04,-0.03 -0.09,-0.08 -0.13,-0.07 -0.1,0.02 -0.28,0.34 -0.24,0.43 0.07,0.16 0.15,0.31 0.23,0.45 0.03,0.05 0.07,0.09 0.11,0.14 -0.2,-0.04 -0.38,-0.1 -0.56,-0.16 -0.14,-0.04 -0.28,-0.15 -0.41,0.08 -0.19,-0.4 -0.4,-0.74 -0.52,-1.11 -0.22,-0.65 -0.31,-1.33 -0.38,-2.02 -0.02,-0.17 -0.04,-0.35 -0.06,-0.52 -0.22,0 -0.34,0.08 -0.37,0.27 -0.02,0.1 -0.03,0.2 -0.03,0.3 0,0.26 0.02,0.51 0.03,0.77 0,0.12 0.01,0.24 0.02,0.37 -0.08,-0.13 -0.13,-0.26 -0.18,-0.39 -0.16,-0.45 -0.32,-0.91 -0.49,-1.36 -0.02,-0.04 -0.07,-0.1 -0.11,-0.1 -0.15,0 -0.29,0.14 -0.29,0.29 0,0.2 0.02,0.4 0.07,0.58 0.07,0.26 0.18,0.51 0.27,0.76 0,0 -0.02,0 -0.03,0.01 -0.11,-0.2 -0.23,-0.39 -0.34,-0.59 -0.25,-0.44 -0.49,-0.88 -0.74,-1.32 -0.03,-0.06 -0.06,-0.12 -0.14,-0.08 -0.22,0.11 -0.44,0.36 -0.38,0.65 0.06,0.26 0.17,0.48 0.33,0.69 0.21,0.27 0.43,0.53 0.63,0.82 0.09,0.12 0.11,0.29 0.16,0.43 -0.01,0 -0.03,0.01 -0.04,0.02 -0.01,-0.01 -0.03,-0.02 -0.04,-0.04 -0.57,-0.67 -1.15,-1.34 -1.72,-2.01 -0.14,-0.16 -0.21,-0.16 -0.3,0.04 -0.03,0.06 -0.04,0.14 -0.04,0.21 0,0.17 0.09,0.3 0.2,0.42 0.44,0.5 0.88,0.99 1.32,1.49 0.07,0.08 0.11,0.18 0.16,0.28 -0.01,0 -0.03,0.02 -0.04,0.03 -0.19,-0.17 -0.37,-0.33 -0.56,-0.5 C 86.9,48.03 86.61,47.76 86.31,47.51 86.26,47.47 86.15,47.45 86.09,47.47 86,47.51 86,47.61 86.04,47.7 c 0.1,0.26 0.24,0.49 0.45,0.68 0.28,0.25 0.56,0.49 0.84,0.74 0.07,0.06 0.11,0.15 0.17,0.22 -0.01,0.01 -0.02,0.02 -0.03,0.03 -0.11,-0.07 -0.22,-0.14 -0.33,-0.2 -0.21,-0.11 -0.41,-0.21 -0.63,-0.29 -0.07,-0.03 -0.17,0.03 -0.26,0.05 0.04,0.08 0.06,0.17 0.11,0.24 0.18,0.22 0.44,0.31 0.68,0.43 0.14,0.07 0.27,0.13 0.41,0.2 -0.22,-0.03 -0.43,-0.09 -0.64,-0.13 -0.08,-0.02 -0.16,-0.03 -0.24,-0.02 -0.06,0 -0.13,0.05 -0.16,0.09 -0.02,0.03 0.04,0.11 0.08,0.15 0.1,0.08 0.21,0.15 0.33,0.23 -0.05,0.01 -0.08,0.03 -0.12,0.04 -0.04,0.01 -0.08,0.02 -0.12,0.03 -0.11,0.04 -0.12,0.11 -0.04,0.18 0.09,0.08 0.19,0.14 0.28,0.2 0.1,0.06 0.2,0.12 0.32,0.2 -0.09,0 -0.15,0 -0.2,0 -0.14,0.02 -0.22,0.09 -0.22,0.21 0,0.14 0.07,0.23 0.21,0.25 0.08,0.02 0.17,0.03 0.27,0.05 -0.15,0.06 -0.32,0.07 -0.35,0.26 -0.03,0.16 0.09,0.23 0.2,0.3 0,0.02 -0.01,0.03 -0.02,0.04 -0.18,0.2 -0.18,0.31 0.01,0.49 0.06,0.06 0.08,0.11 0.05,0.19 -0.02,0.05 -0.03,0.1 -0.04,0.14 -0.05,0.21 0,0.31 0.19,0.4 0.07,0.04 0.07,0.08 0.05,0.14 -0.08,0.27 -0.05,0.36 0.2,0.49 0.09,0.05 0.11,0.09 0.08,0.19 -0.07,0.24 0.02,0.39 0.26,0.46 0.06,0.02 0.12,0.04 0.19,0.06 -0.02,0.07 -0.04,0.12 -0.06,0.17 -0.05,0.17 -0.02,0.21 0.15,0.23 0.07,0 0.15,0.01 0.25,0.02 -0.18,0.25 -0.02,0.38 0.15,0.53 -0.58,0.35 -1.22,0.39 -1.84,0.5 -0.62,0.11 -1.24,0.25 -1.89,0.2 z"
       id="path27" />
  </g>
</svg>
